<?xml version="1.0" encoding="UTF-8"?>
<svg id="Layer_1" xmlns="http://www.w3.org/2000/svg" version="1.1" viewBox="0 0 1080 1080">
  <!-- Generator: Adobe Illustrator 30.3.0, SVG Export Plug-In . SVG Version: 2.1.3 Build 182)  -->
  <defs>
    <style>
      .st0 {
        fill: #fdd800;
      }
    </style>
  </defs>
  <path d="M537.87,55.11h-1.1L20.65,540.55v1.1l521.6,483.25h1.1l516.12-485.44v-1.1L537.87,55.11ZM543.74,1010.57L35.99,542.16,536.38,69.43l507.75,468.41-500.39,472.73Z"/>
  <path class="st0" d="M536.38,69.43L35.99,542.16l507.75,468.41,500.39-472.73L536.38,69.43ZM435.96,532.88h-56.98v-53.15c0-.58-2.18-6.74-2.91-7.22-16.48-5.7-16.2,8.22-16.86,20.32-1.79,32.46-1.93,77.3.01,109.68.25,4.22,1.13,15.46,3.84,18.08,6.17,6.01,15.93-.19,15.93-8.26v-44.38h56.98c-.39,32.38,4.61,64.27-27.37,82.76-29.83,17.24-88.65,12.54-101.14-24.92-8.42-25.21-6.36-93.23-5.22-121.99.73-18.43,1.19-35.24,13.73-49.83,22.61-26.33,79.39-26.64,104.13-3.3,21.52,20.29,14.57,55.52,15.87,82.21ZM599.23,518.63h-56.98v-35.61c0-3.44-2.09-10.7-6.05-11.48-10.75-2.15-10.86,7.83-11.47,15.88-2.91,38.14,2.15,79.81,0,118.33,1.59,5.02-.02,13.65,5.74,16.17,6.42,2.79,11.11-1.75,12.39-7.88.92-4.45,1.41-14.21,1.62-19.2.32-7.47-.33-15.05-.03-22.52h-10.97s0-33.96,0-33.96h65.75v117.25h-36.16l-4.92-14.23c-24.45,35.87-79.67,16.45-87.89-22.8-5.76-27.5-3.82-85.14-2.56-114.77,1.07-25.49,2.1-45.41,25.34-60.14,21.11-13.38,57.68-12.96,79.14-.42,28.96,16.92,27.11,45.39,27.07,75.39ZM760.32,655.61h-52.6v-84.92c0-1.4-2.48-9.31-3.78-10.46-2.96-2.61-8.94-2.15-12.66-2.14v97.53h-56.98v-216.97c28.33,1.81,60.25-2.95,88.08,1.23,25.27,3.78,36.3,20.72,37.98,45.3,1.06,15.49,2.4,44.3-13.14,52.7l-15.39,4.87c10.32,1.33,19.21,6.59,24.27,15.72,1.05,1.88,4.21,8.42,4.21,10.04v87.12Z"/>
  <g>
    <path d="M731.84,542.73l15.39-4.87c15.54-8.39,14.2-37.2,13.14-52.7-1.68-24.58-12.71-41.52-37.98-45.3-27.83-4.18-59.75.58-88.08-1.23v216.97h56.98v-97.53c3.71-.01,9.7-.47,12.66,2.14,1.3,1.15,3.78,9.06,3.78,10.46v84.92h52.6v-87.12c0-1.62-3.16-8.15-4.21-10.04-5.06-9.14-13.95-14.4-24.27-15.72ZM691.28,523.02v-47.12c11.89-.73,15.66,3.43,16.48,14.75.99,13.52,3.29,35.89-16.48,32.37Z"/>
    <path class="st0" d="M691.28,523.02v-47.12c11.89-.73,15.66,3.43,16.48,14.75.99,13.52,3.29,35.89-16.48,32.37Z"/>
    <path d="M542.25,518.63v-35.61c0-3.44-2.09-10.7-6.05-11.48-10.75-2.15-10.86,7.83-11.47,15.88-2.91,38.14,2.15,79.81,0,118.33,1.59,5.02-.02,13.65,5.74,16.17,6.42,2.79,11.11-1.75,12.39-7.88.92-4.45,1.41-14.21,1.62-19.2.32-7.47-.33-15.05-.03-22.52h-10.97s0-33.96,0-33.96h65.75v117.25h-36.16l-4.92-14.23c-24.45,35.87-79.67,16.45-87.89-22.8-5.76-27.5-3.82-85.14-2.56-114.77,1.07-25.49,2.1-45.41,25.34-60.14,21.11-13.38,57.68-12.96,79.14-.42,28.96,16.92,27.11,45.39,27.07,75.39h-56.98Z"/>
    <path d="M408.58,650.7c-29.83,17.24-88.65,12.54-101.14-24.92-8.42-25.21-6.36-93.23-5.22-121.99.73-18.43,1.19-35.24,13.73-49.83,22.61-26.33,79.39-26.64,104.13-3.3,21.52,20.29,14.57,55.52,15.87,82.21h-56.98v-53.15c0-.58-2.18-6.74-2.91-7.22-16.48-5.7-16.2,8.22-16.86,20.32-1.79,32.46-1.93,77.3.01,109.68.25,4.22,1.13,15.46,3.84,18.08,6.17,6.01,15.93-.19,15.93-8.26v-44.38h56.98c-.39,32.38,4.61,64.27-27.37,82.76Z"/>
  </g>
</svg>